<?xml version="1.0" encoding="UTF-8" standalone="no"?>
<!-- Created with Inkscape (http://www.inkscape.org/) -->

<svg
   width="1024"
   height="400"
   viewBox="0 0 270.93333 105.83334"
   version="1.1"
   id="svg5"
   inkscape:version="1.2.2 (b0a8486541, 2022-12-01)"
   sodipodi:docname="Fig-User-Assistant.svg"
   inkscape:export-filename="Fig-User-Assistant.png"
   inkscape:export-xdpi="138.33144"
   inkscape:export-ydpi="138.33144"
   xmlns:inkscape="http://www.inkscape.org/namespaces/inkscape"
   xmlns:sodipodi="http://sodipodi.sourceforge.net/DTD/sodipodi-0.dtd"
   xmlns:xlink="http://www.w3.org/1999/xlink"
   xmlns="http://www.w3.org/2000/svg"
   xmlns:svg="http://www.w3.org/2000/svg">
  <sodipodi:namedview
     id="namedview7"
     pagecolor="#ffffff"
     bordercolor="#000000"
     borderopacity="0.25"
     inkscape:showpageshadow="2"
     inkscape:pageopacity="0.0"
     inkscape:pagecheckerboard="0"
     inkscape:deskcolor="#d1d1d1"
     inkscape:document-units="mm"
     showgrid="true"
     inkscape:zoom="1.1855469"
     inkscape:cx="512"
     inkscape:cy="199.90774"
     inkscape:window-width="1366"
     inkscape:window-height="736"
     inkscape:window-x="0"
     inkscape:window-y="0"
     inkscape:window-maximized="1"
     inkscape:current-layer="layer2"
     inkscape:lockguides="false">
    <inkscape:grid
       type="xygrid"
       id="grid317898" />
  </sodipodi:namedview>
  <defs
     id="defs2">
    <marker
       style="overflow:visible"
       id="marker319456"
       refX="0"
       refY="0"
       orient="auto-start-reverse"
       inkscape:stockid="TriangleStart"
       markerWidth="5.3244081"
       markerHeight="6.155385"
       viewBox="0 0 5.3244081 6.1553851"
       inkscape:isstock="true"
       inkscape:collect="always"
       preserveAspectRatio="xMidYMid">
      <path
         transform="scale(0.5)"
         style="fill:context-stroke;fill-rule:evenodd;stroke:context-stroke;stroke-width:1pt"
         d="M 5.77,0 -2.88,5 V -5 Z"
         id="path319454" />
    </marker>
    <marker
       style="overflow:visible"
       id="marker318204"
       refX="0"
       refY="0"
       orient="auto-start-reverse"
       inkscape:stockid="TriangleStart"
       markerWidth="5.3244081"
       markerHeight="6.155385"
       viewBox="0 0 5.3244081 6.1553851"
       inkscape:isstock="true"
       inkscape:collect="always"
       preserveAspectRatio="xMidYMid">
      <path
         transform="scale(0.5)"
         style="fill:context-stroke;fill-rule:evenodd;stroke:context-stroke;stroke-width:1pt"
         d="M 5.77,0 -2.88,5 V -5 Z"
         id="path318202" />
    </marker>
    <marker
       style="overflow:visible"
       id="TriangleStart"
       refX="0"
       refY="0"
       orient="auto-start-reverse"
       inkscape:stockid="TriangleStart"
       markerWidth="5.3244081"
       markerHeight="6.155385"
       viewBox="0 0 5.3244081 6.1553851"
       inkscape:isstock="true"
       inkscape:collect="always"
       preserveAspectRatio="xMidYMid">
      <path
         transform="scale(0.5)"
         style="fill:context-stroke;fill-rule:evenodd;stroke:context-stroke;stroke-width:1pt"
         d="M 5.77,0 -2.88,5 V -5 Z"
         id="path135" />
    </marker>
    <rect
       x="266.4129"
       y="233.88997"
       width="87.866235"
       height="26.98127"
       id="rect13923" />
    <linearGradient
       id="linearGradient9561"
       inkscape:swatch="solid">
      <stop
         style="stop-color:#000000;stop-opacity:1;"
         offset="0"
         id="stop9559" />
    </linearGradient>
    <linearGradient
       id="linearGradient9553"
       inkscape:swatch="solid">
      <stop
         style="stop-color:#000000;stop-opacity:1;"
         offset="0"
         id="stop9551" />
    </linearGradient>
    <rect
       x="413.92145"
       y="516.66431"
       width="104.76055"
       height="24.63695"
       id="rect9065" />
    <rect
       x="158.12051"
       y="436.22186"
       width="166.68176"
       height="93.231827"
       id="rect288" />
    <symbol
       id="database"
       viewBox="0 0 12 16">
      <title
         id="title2436">database</title>
      <path
         d="M 6,15 C 2.69,15 0,14.1 0,13 v -2 c 0,-0.17 0.09,-0.34 0.21,-0.5 0.67,0.86 3,1.5 5.79,1.5 2.79,0 5.12,-0.64 5.79,-1.5 0.13,0.16 0.21,0.33 0.21,0.5 v 2 c 0,1.1 -2.69,2 -6,2 z M 6,11 C 2.69,11 0,10.1 0,9 V 7 C 0,6.89 0.04,6.79 0.09,6.69 0.12,6.63 0.16,6.56 0.21,6.5 0.88,7.36 3.21,8 6,8 8.79,8 11.12,7.36 11.79,6.5 11.84,6.56 11.88,6.63 11.91,6.69 11.96,6.79 12,6.9 12,7 v 2 c 0,1.1 -2.69,2 -6,2 z M 6,7 C 2.69,7 0,6.1 0,5 V 3 C 0,1.9 2.69,1 6,1 9.31,1 12,1.9 12,3 V 5 C 12,6.1 9.31,7 6,7 Z M 6,2 C 3.79,2 2,2.45 2,3 2,3.55 3.79,4 6,4 8.21,4 10,3.55 10,3 10,2.45 8.21,2 6,2 Z"
         id="path2438" />
    </symbol>
    <symbol
       id="icon-user"
       viewBox="0 0 768 1024">
      <title
         id="title4417">user</title>
      <path
         d="M 384,512 C 172,512 0,684 0,896 c 0,70.752 57.248,128 128,128 h 512 c 70.752,0 128,-57.248 128,-128 C 768,684 596,512 384,512 Z M 192,192 C 192,85.961 277.961,0 384,0 490.039,0 576,85.961 576,192 576,298.039 490.039,384 384,384 277.961,384 192,298.039 192,192 Z"
         id="path4419" />
    </symbol>
    <symbol
       id="icon-article"
       viewBox="0 0 1024 1024">
      <title
         id="title4292">article</title>
      <path
         d="M 1024,128 H 0 V 0 H 1024 Z M 640,384 H 0 V 256 h 640 z m 384,384 H 0 V 640 H 1024 Z M 768,1024 H 0 V 896 h 768 z m 256,-64 c 0,35.36 -28.704,64 -63.936,64 C 924.608,1024 896,995.36 896,960 c 0,-35.36 28.608,-64 64.064,-64 35.232,0 63.936,28.64 63.936,64 z"
         id="path4294" />
    </symbol>
    <rect
       x="158.12051"
       y="436.22186"
       width="166.68176"
       height="93.231827"
       id="rect288-2" />
    <rect
       x="158.12051"
       y="436.22186"
       width="166.68176"
       height="93.231827"
       id="rect7991" />
    <rect
       x="158.12051"
       y="436.22186"
       width="166.68176"
       height="93.231827"
       id="rect7997" />
    <rect
       x="158.12051"
       y="436.22186"
       width="166.68176"
       height="93.231827"
       id="rect9061" />
    <rect
       x="158.12051"
       y="436.22186"
       width="166.68176"
       height="93.231827"
       id="rect9284" />
    <symbol
       id="icon-cog"
       viewBox="0 0 1024 1024">
      <title
         id="title3787">cog</title>
      <path
         d="m 1024,575.008 v -128 L 871.008,383.264 c -4.256,-12 -8.736,-23.616 -14.24,-35.008 L 918.528,194.496 828,104 675.616,166.752 C 664,161.12 652.128,156.384 639.872,152 L 575.008,0 h -128 l -63.264,151.488 c -12.736,4.512 -24.992,9.248 -37.12,15.008 L 194.496,105.376 104,195.872 166.016,346.624 c -6.016,12.384 -10.88,24.992 -15.52,38.016 L 0,448.992 v 128 l 150.624,62.752 c 4.64,12.992 9.632,25.632 15.616,38.016 L 105.376,829.504 195.872,920 347.008,857.76 c 12.128,5.76 24.512,10.368 37.248,14.752 L 448.992,1024 h 128 l 63.36,-152.256 c 12.128,-4.512 24.128,-9.248 35.616,-14.752 L 829.472,918.496 919.968,828 856.96,675.264 c 5.376,-11.488 9.76,-23.136 14.016,-35.008 z M 511.008,704 c -105.984,0 -192,-86.016 -192,-192 0,-105.984 86.016,-192 192,-192 105.984,0 192,86.016 192,192 0,105.984 -86.016,192 -192,192 z"
         id="path3789" />
    </symbol>
    <rect
       x="158.12051"
       y="436.22186"
       width="166.68176"
       height="93.231827"
       id="rect9571" />
    <rect
       x="158.12051"
       y="436.22186"
       width="166.68176"
       height="93.231827"
       id="rect9061-1" />
    <rect
       x="158.12051"
       y="436.22186"
       width="166.68176"
       height="93.231827"
       id="rect263775" />
    <rect
       x="158.12051"
       y="436.22186"
       width="166.68176"
       height="93.231827"
       id="rect271289" />
    <rect
       x="158.12051"
       y="436.22186"
       width="166.68176"
       height="93.231827"
       id="rect271299" />
  </defs>
  <g
     inkscape:label="Layer 1"
     inkscape:groupmode="layer"
     id="layer1"
     style="display:inline" />
  <g
     inkscape:groupmode="layer"
     id="layer3"
     inkscape:label="Layer 3" />
  <g
     inkscape:groupmode="layer"
     id="layer2"
     inkscape:label="Layer 2"
     style="display:inline">
    <g
       id="g10404"
       transform="matrix(1.441204,0,0,1.441204,-4.362108,-126.76996)">
      <rect
         style="display:inline;fill:#80b3ff;fill-opacity:1;stroke:#000000;stroke-width:0.30015;stroke-dasharray:none;stroke-opacity:1"
         id="rect9557"
         width="26.158182"
         height="34.332664"
         x="142.12056"
         y="104.4099"
         inkscape:label="rect9557" />
      <use
         xlink:href="#icon-cog"
         width="1024"
         height="1024"
         style="display:inline;fill:#000000;stroke:#000000;stroke-opacity:1;image-rendering:auto"
         id="use9519"
         transform="matrix(0.02323171,0,0,0.02323171,143.14759,105.55889)" />
      <text
         xml:space="preserve"
         transform="matrix(0.26458333,0,0,0.26458333,91.610896,16.190033)"
         id="text9569"
         style="font-style:normal;font-variant:normal;font-weight:bold;font-stretch:normal;font-size:24px;font-family:sans-serif;-inkscape-font-specification:'sans-serif, Bold';font-variant-ligatures:normal;font-variant-caps:normal;font-variant-numeric:normal;font-variant-east-asian:normal;text-align:center;white-space:pre;shape-inside:url(#rect9571);display:inline;fill:#000000;stroke:#000000;stroke-opacity:1"
         x="80.490593"
         y="0"><tspan
           x="216.58589"
           y="458.05966"
           id="tspan322154">LLM
</tspan></text>
    </g>
    <text
       xml:space="preserve"
       transform="scale(0.26458333)"
       id="text9063"
       style="font-style:normal;font-variant:normal;font-weight:bold;font-stretch:normal;font-size:24px;font-family:sans-serif;-inkscape-font-specification:'sans-serif, Bold';font-variant-ligatures:normal;font-variant-caps:normal;font-variant-numeric:normal;font-variant-east-asian:normal;text-align:center;white-space:pre;shape-inside:url(#rect9065);display:inline;fill:none;fill-opacity:1;stroke:#000000;stroke-width:1.00157;stroke-dasharray:none;stroke-opacity:1" />
    <g
       id="g9677"
       transform="matrix(1.441204,0,0,1.441204,5.9982121,-128.64124)">
      <rect
         style="display:inline;fill:#80b3ff;fill-opacity:1;stroke:#000000;stroke-width:0.243933;stroke-dasharray:none;stroke-opacity:1"
         id="rect9278"
         width="26.214401"
         height="34.467255"
         x="14.493944"
         y="105.59657" />
      <use
         xlink:href="#icon-user"
         width="768"
         height="1024"
         style="fill:#000000;fill-opacity:1;stroke:none"
         id="use5082"
         transform="matrix(0.02583822,0,0,0.02211824,17.675284,107.94287)" />
      <text
         xml:space="preserve"
         transform="matrix(0.24359408,0,0,0.24359408,-32.52849,26.428551)"
         id="text9282"
         style="font-style:normal;font-variant:normal;font-weight:bold;font-stretch:normal;font-size:24px;font-family:sans-serif;-inkscape-font-specification:'sans-serif, Bold';font-variant-ligatures:normal;font-variant-caps:normal;font-variant-numeric:normal;font-variant-east-asian:normal;text-align:center;white-space:pre;shape-inside:url(#rect9284);display:inline;fill:#000000;stroke:#000000;stroke-opacity:1"
         x="80.490593"
         y="0"><tspan
           x="213.88591"
           y="458.05966"
           id="tspan322156">User
</tspan></text>
    </g>
    <text
       xml:space="preserve"
       transform="scale(0.26458333)"
       id="text13921"
       style="font-weight:bold;font-size:24px;font-family:sans-serif;-inkscape-font-specification:'sans-serif, Bold';text-align:center;white-space:pre;shape-inside:url(#rect13923);display:inline;fill:#80b3ff;stroke:#000000;stroke-width:1.00157"><tspan
         x="266.41211"
         y="282.7081"
         id="tspan322160"><tspan
           dx="0 15.072006 10.416 14.855988"
           id="tspan322158">Prom</tspan></tspan></text>
    <text
       xml:space="preserve"
       style="font-style:normal;font-variant:normal;font-weight:normal;font-stretch:normal;font-size:5.08425px;font-family:sans-serif;-inkscape-font-specification:'sans-serif, Normal';font-variant-ligatures:normal;font-variant-caps:normal;font-variant-numeric:normal;font-variant-east-asian:normal;text-align:center;text-anchor:middle;fill:#000000;fill-opacity:1;stroke:#000000;stroke-width:0.381918"
       x="87.695564"
       y="32.078381"
       id="text13947"><tspan
         sodipodi:role="line"
         id="tspan13945"
         style="font-style:normal;font-variant:normal;font-weight:normal;font-stretch:normal;font-size:5.08425px;font-family:sans-serif;-inkscape-font-specification:'sans-serif, Normal';font-variant-ligatures:normal;font-variant-caps:normal;font-variant-numeric:normal;font-variant-east-asian:normal;fill:#000000;fill-opacity:1;stroke-width:0.381919"
         x="87.695564"
         y="32.078381">Prompt</tspan></text>
    <text
       xml:space="preserve"
       style="font-style:normal;font-variant:normal;font-weight:normal;font-stretch:normal;font-size:5.08425px;font-family:sans-serif;-inkscape-font-specification:'sans-serif, Normal';font-variant-ligatures:normal;font-variant-caps:normal;font-variant-numeric:normal;font-variant-east-asian:normal;text-align:center;text-anchor:middle;fill:#000000;fill-opacity:1;stroke:#000000;stroke-width:0.381918"
       x="86.580414"
       y="59.05294"
       id="text14080"><tspan
         sodipodi:role="line"
         id="tspan14082"
         x="86.580414"
         y="59.05294"
         style="stroke-width:0.381918">Response</tspan></text>
    <path
       style="display:inline;fill:none;fill-rule:evenodd;stroke:#000000;stroke-width:0.381318px;stroke-linecap:butt;stroke-linejoin:miter;stroke-opacity:1;marker-end:url(#marker318204)"
       d="m 64.693098,34.231691 57.068312,-0.08148"
       id="path318159"
       inkscape:connector-type="polyline"
       inkscape:connector-curvature="0"
       sodipodi:nodetypes="cc" />
    <path
       style="fill:none;fill-rule:evenodd;stroke:#000000;stroke-width:0.381318px;stroke-linecap:butt;stroke-linejoin:miter;stroke-opacity:1;marker-start:url(#TriangleStart);marker-end:url(#TriangleStart)"
       d="m 170.66381,42.266193 28.06285,-0.05822"
       id="path318374"
       inkscape:connector-type="polyline"
       inkscape:connector-curvature="0"
       sodipodi:nodetypes="cc" />
    <path
       style="fill:none;fill-rule:evenodd;stroke:#000000;stroke-width:0.381318px;stroke-linecap:butt;stroke-linejoin:miter;stroke-opacity:1;marker-end:url(#marker319456)"
       d="M 123.28749,53.544182 66.332915,53.431551"
       id="path319208"
       inkscape:connector-type="polyline"
       inkscape:connector-curvature="0"
       sodipodi:nodetypes="cc" />
    <g
       id="g320229"
       style="display:inline"
       transform="matrix(1.441204,0,0,1.441204,103.43295,-48.405058)">
      <rect
         style="display:inline;fill:#80b3ff;fill-opacity:1;stroke:#000000;stroke-width:0.328826;stroke-dasharray:none;stroke-opacity:1"
         id="rect271295"
         width="31.421173"
         height="34.304073"
         x="13.764121"
         y="49.65958"
         inkscape:label="rect9557" />
      <text
         xml:space="preserve"
         transform="matrix(0.26458333,0,0,0.26458333,-34.608453,-40.784692)"
         id="text271297"
         style="font-style:normal;font-variant:normal;font-weight:bold;font-stretch:normal;font-size:24px;font-family:sans-serif;-inkscape-font-specification:'sans-serif, Bold';font-variant-ligatures:normal;font-variant-caps:normal;font-variant-numeric:normal;font-variant-east-asian:normal;text-align:center;white-space:pre;shape-inside:url(#rect271299);display:inline;fill:#000000;stroke:#000000;stroke-opacity:1"
         x="80.490593"
         y="0"><tspan
           x="186.08192"
           y="458.05966"
           id="tspan322162">Assistant
</tspan></text>
      <g
         id="use316936"
         style="fill:#000000;stroke:none"
         transform="matrix(0.02325439,0,0,0.02325439,17.505189,50.513478)">
        <title
           id="title320519">move</title>
        <path
           d="M 576,640 V 832 H 704 L 512,1024 320,832 H 448 V 640 Z M 448,384 V 192 H 320 L 512,0 704,192 H 576 V 384 Z M 384,576 H 192 V 704 L 0,512 192,320 V 448 H 384 Z M 640,448 H 832 V 320 L 1024,512 832,704 V 576 H 640 Z"
           id="path320521" />
      </g>
    </g>
  </g>
</svg>
